<svg xmlns="http://www.w3.org/2000/svg" width="30" height="30" viewBox="0 0 50 50" >
<g transform="translate(0,50) scale(0.1,-0.1)" fill="white" >
<path d="M119 454 c-71 -44 -105 -152 -78 -247 9 -35 62 -107 78-107 4 0 5 18 3 39 -3 25 4 56 17 86 18 40 19 52 9 89 -11 42 -7 77 
11 106 14 21 24 5 12 -18 -13 -25 -14 -72 -2 -91 8 -12 15 -10 39 11 16 13 43 30 61 37 l31 13 -18 30 c-35 61 -110 84 -163 52z"/>
<path d="M291 349 c-49 -15 -127 -98 -141 -150 -16 -57 -7 -107 25 -138 22 -22 34 -26 85 -26 49 1 66 6 102 31 23 16 56 
49 72 72 25 36 30 53 31 102 0 51 -4 63 -26 86 -30 30 -93 40 -148 23z m129 -68 c0 -33 -39 -69 -98 -91 -67 -25 -102 -55 
-102 -87 0 -13 -4 -23 -10 -23 -5 0 -10 11 -10 24 0 39 42 80 104 99 54 17 96 54 96 83 0 8 5 14 10 14 6 0 10 -8 10 -19z"/> 
 </g></svg>